<svg xmlns="http://www.w3.org/2000/svg" xmlns:xlink="http://www.w3.org/1999/xlink" viewBox="0,0,256,256" width="24px" height="24px"><g fill="#bdbdbd" fill-rule="nonzero" stroke="none" stroke-width="1" stroke-linecap="butt" stroke-linejoin="miter" stroke-miterlimit="10" stroke-dasharray="" stroke-dashoffset="0" font-family="none" font-weight="none" font-size="none" text-anchor="none" style="mix-blend-mode: normal"><g transform="scale(10.66667,10.66667)"><path d="M16.988,4.508c-1.918,0 -2.72,1.178 -4.049,1.178c-1.367,0 -2.616,-1.105 -4.27,-1.105c-2.25,0.001 -5.669,2.086 -5.669,6.995c0,4.467 4.047,9.424 6.331,9.424c1.388,0.014 1.725,-0.874 3.608,-0.883c1.885,-0.014 2.291,0.895 3.681,0.883c1.565,-0.012 2.788,-1.73 3.681,-3.092c0.15,-0.229 0.279,-0.431 0.396,-0.621c0.549,-0.897 0.332,-2.038 -0.48,-2.707c-1.928,-1.589 -2.207,-4.938 -0.056,-6.596c0.77,-0.594 0.734,-1.792 -0.075,-2.331c-1.017,-0.68 -2.233,-1.145 -3.098,-1.145z" opacity="0.35"></path><path d="M16.612,0.811c0.074,-0.481 -0.345,-0.912 -0.816,-0.79c-0.927,0.24 -1.86,0.77 -2.471,1.405c-0.531,0.555 -0.978,1.31 -1.079,2.102c-0.057,0.45 0.325,0.852 0.771,0.773c0.997,-0.177 1.933,-0.736 2.541,-1.409c0.513,-0.566 0.934,-1.295 1.054,-2.081z"></path></g></g></svg>